<svg width="54" height="24" viewBox="0 0 54 24" fill="none" xmlns="http://www.w3.org/2000/svg">
<path d="M13.2394 13.9347V0H8.08221V14.3549C8.08221 16.7527 6.18269 18.705 3.84629 18.705H0.104248V23.5826H3.84629C9.02563 23.5794 13.2394 19.2547 13.2394 13.9347Z" fill="white"/>
<path d="M40.9691 9.62013V23.5826H46.0908L46.0845 9.19981C46.0845 6.80742 47.9712 4.86063 50.2863 4.86063H54V0H50.2895C45.149 0 40.9691 4.31705 40.9691 9.62013Z" fill="white"/>
<path d="M26.1821 24H28.3392C33.3471 24 37.4247 19.5503 37.4247 14.0776V0H32.1803V14.0776C32.1803 16.5701 30.4584 18.597 28.3392 18.597H26.1821C24.0629 18.597 22.341 16.5701 22.341 14.0776V0H17.0966V14.0776C17.0966 19.5471 21.1742 24 26.1821 24Z" fill="white"/>
<path d="M4.79537 0H0V4.8H4.79537V0Z" fill="white"/>
</svg>
